<mxfile host="app.diagrams.net" modified="2023-03-10T09:43:43.903Z" agent="5.0 (Macintosh; Intel Mac OS X 10_15_7) AppleWebKit/537.36 (KHTML, like Gecko) Chrome/110.0.0.0 Safari/537.36" etag="DzrZ4tJfU6oyN1Seqw6R" version="21.0.6" type="github">
  <diagram name="第 1 页" id="AFjqKjaksHaww_qtbwhb">
    <mxGraphModel dx="926" dy="905" grid="1" gridSize="10" guides="1" tooltips="1" connect="1" arrows="1" fold="1" page="1" pageScale="1" pageWidth="827" pageHeight="1169" math="0" shadow="0">
      <root>
        <mxCell id="0" />
        <mxCell id="1" parent="0" />
        <mxCell id="qDOOfINmSQNAML88PRKu-1" value="" style="endArrow=classic;html=1;rounded=0;" edge="1" parent="1">
          <mxGeometry width="50" height="50" relative="1" as="geometry">
            <mxPoint x="120" y="410" as="sourcePoint" />
            <mxPoint x="640" y="410" as="targetPoint" />
          </mxGeometry>
        </mxCell>
        <mxCell id="qDOOfINmSQNAML88PRKu-2" value="" style="endArrow=none;html=1;rounded=0;" edge="1" parent="1">
          <mxGeometry width="50" height="50" relative="1" as="geometry">
            <mxPoint x="360" y="670" as="sourcePoint" />
            <mxPoint x="360" y="170" as="targetPoint" />
          </mxGeometry>
        </mxCell>
        <mxCell id="qDOOfINmSQNAML88PRKu-3" value="Web" style="text;html=1;align=center;verticalAlign=middle;resizable=0;points=[];autosize=1;strokeColor=none;fillColor=none;" vertex="1" parent="1">
          <mxGeometry x="85" y="90" width="50" height="30" as="geometry" />
        </mxCell>
        <mxCell id="qDOOfINmSQNAML88PRKu-4" value="Java" style="text;html=1;align=center;verticalAlign=middle;resizable=0;points=[];autosize=1;strokeColor=none;fillColor=none;" vertex="1" parent="1">
          <mxGeometry x="340" y="90" width="50" height="30" as="geometry" />
        </mxCell>
        <mxCell id="qDOOfINmSQNAML88PRKu-5" value="Engine" style="text;html=1;align=center;verticalAlign=middle;resizable=0;points=[];autosize=1;strokeColor=none;fillColor=none;" vertex="1" parent="1">
          <mxGeometry x="590" y="90" width="60" height="30" as="geometry" />
        </mxCell>
        <mxCell id="qDOOfINmSQNAML88PRKu-7" value="数据源&lt;br&gt;1. ws 订阅&lt;br&gt;2. restful 基础接口" style="whiteSpace=wrap;html=1;" vertex="1" parent="1">
          <mxGeometry x="10" y="220" width="120" height="60" as="geometry" />
        </mxCell>
        <mxCell id="qDOOfINmSQNAML88PRKu-8" value="下单相关接口&lt;br&gt;(下单、调整杠杆)" style="whiteSpace=wrap;html=1;" vertex="1" parent="1">
          <mxGeometry x="566" y="220" width="120" height="60" as="geometry" />
        </mxCell>
        <mxCell id="qDOOfINmSQNAML88PRKu-10" value="Java restful 相关接口&lt;br&gt;1. Assets&lt;br&gt;2. 订单历史" style="whiteSpace=wrap;html=1;" vertex="1" parent="1">
          <mxGeometry x="190" y="510" width="120" height="60" as="geometry" />
        </mxCell>
        <mxCell id="qDOOfINmSQNAML88PRKu-11" value="校验用户状态和接口传参一致性" style="ellipse;whiteSpace=wrap;html=1;" vertex="1" parent="1">
          <mxGeometry x="656" y="260" width="80" height="80" as="geometry" />
        </mxCell>
        <mxCell id="qDOOfINmSQNAML88PRKu-12" value="直接根据接口参数返回" style="ellipse;whiteSpace=wrap;html=1;" vertex="1" parent="1">
          <mxGeometry x="280" y="545" width="80" height="80" as="geometry" />
        </mxCell>
        <mxCell id="qDOOfINmSQNAML88PRKu-13" value="设置&lt;br&gt;1. API Management&lt;br&gt;2. 子账户&lt;br&gt;3. 常规设置..." style="whiteSpace=wrap;html=1;" vertex="1" parent="1">
          <mxGeometry x="390" y="510" width="120" height="60" as="geometry" />
        </mxCell>
        <mxCell id="qDOOfINmSQNAML88PRKu-14" value="不提供simulate独立配置（看产品规划）" style="ellipse;whiteSpace=wrap;html=1;" vertex="1" parent="1">
          <mxGeometry x="486" y="555" width="80" height="80" as="geometry" />
        </mxCell>
        <mxCell id="qDOOfINmSQNAML88PRKu-15" value="状态切换，刷新切换源数据" style="ellipse;whiteSpace=wrap;html=1;" vertex="1" parent="1">
          <mxGeometry x="110" y="260" width="80" height="80" as="geometry" />
        </mxCell>
      </root>
    </mxGraphModel>
  </diagram>
</mxfile>
